<?xml version="1.0" encoding="UTF-8"?>
<svg xmlns="http://www.w3.org/2000/svg" width="512" height="512" viewBox="0 0 512 512"><g><path d="M504,340a20.02,20.02,0,0,0-20-20H424V304a8,8,0,0,0-8-8h-8V128a8,8,0,0,0-8-8H247.73A120,120,0,1,0,120,247.73V400a8,8,0,0,0,8,8H296v4a19.885,19.885,0,0,0,4.04,12A19.885,19.885,0,0,0,296,436v24a20.02,20.02,0,0,0,20,20h60v16a8,8,0,0,0,8,8h32a8,8,0,0,0,8-8V480h60a20.02,20.02,0,0,0,20-20V436a19.885,19.885,0,0,0-4.04-12A19.885,19.885,0,0,0,504,412V388a19.885,19.885,0,0,0-4.04-12A19.885,19.885,0,0,0,504,364Zm-96-28v8H392v-8ZM24,128a104,104,0,1,1,180.87,69.97C198.07,177.9,180.85,160,160,160h-8v-6.46A48.012,48.012,0,0,0,176,112V80c0-.23-.01-.45-.03-.68a49.189,49.189,0,0,0-13.93-32.66A47.054,47.054,0,0,0,128,32,48.051,48.051,0,0,0,80,80v32a48.012,48.012,0,0,0,24,41.54V160H96c-20.85,0-38.07,17.9-44.87,37.97A103.548,103.548,0,0,1,24,128Zm104,16a32.03,32.03,0,0,1-32-32V96.08c1.88.12,3.99.2,6.35.2,12.94,0,32.94-2.34,57.65-12.79V112A32.03,32.03,0,0,1,128,144Zm8,15.32V168a8,8,0,0,1-16,0v-8.68a47.4,47.4,0,0,0,16,0ZM96,80.04V80a32.03,32.03,0,0,1,32-32c12.65,0,23.86,8.04,29.01,19.34-19.84,8.84-36.12,11.77-46.71,12.62A92.371,92.371,0,0,1,96,80.04ZM64.47,210.28C67.11,193.66,80.56,176,96,176h9.38a23.99,23.99,0,0,0,45.24,0H160c15.44,0,28.89,17.66,31.53,34.28a103.771,103.771,0,0,1-127.06,0ZM296,340v24a19.885,19.885,0,0,0,4.04,12A19.885,19.885,0,0,0,296,388v4H136V247.73A120.178,120.178,0,0,0,247.73,136H392V296h-8a8,8,0,0,0-8,8v16H316A20.02,20.02,0,0,0,296,340ZM408,488H392v-8h16Zm80-28a4,4,0,0,1-4,4H316a4,4,0,0,1-4-4V436a4,4,0,0,1,4-4H484a4,4,0,0,1,4,4Zm0-48a4,4,0,0,1-4,4H316a4,4,0,0,1-4-4V388a4,4,0,0,1,4-4H484a4,4,0,0,1,4,4Zm0-48a4,4,0,0,1-4,4H316a4,4,0,0,1-4-4V340a4,4,0,0,1,4-4H484a4,4,0,0,1,4,4Z"/><circle cx="328" cy="352" r="8"/><circle cx="352" cy="352" r="8"/><circle cx="376" cy="352" r="8"/><path d="M424,360h48a8,8,0,0,0,0-16H424a8,8,0,0,0,0,16Z"/><circle cx="328" cy="400" r="8"/><circle cx="352" cy="400" r="8"/><circle cx="376" cy="400" r="8"/><path d="M424,408h48a8,8,0,0,0,0-16H424a8,8,0,0,0,0,16Z"/><circle cx="328" cy="448" r="8"/><circle cx="352" cy="448" r="8"/><circle cx="376" cy="448" r="8"/><path d="M472,440H424a8,8,0,0,0,0,16h48a8,8,0,0,0,0-16Z"/></g></svg>
